{"bpm":60,"notes":[{"pitch":39,"velocity":76,"channel":0,"time":0,"duration":0.49},{"pitch":59,"velocity":76,"channel":0,"time":1,"duration":0.49},{"pitch":67,"velocity":76,"channel":0,"time":2,"duration":0.49},{"pitch":58,"velocity":76,"channel":0,"time":3,"duration":0.49},{"pitch":53,"velocity":76,"channel":0,"time":4,"duration":0.49},{"pitch":42,"velocity":76,"channel":0,"time":5,"duration":0.49},{"pitch":59,"velocity":76,"channel":0,"time":6,"duration":0.49},{"pitch":52,"velocity":76,"channel":0,"time":7,"duration":0.49},{"pitch":37,"velocity":76,"channel":0,"time":8,"duration":0.49},{"pitch":65,"velocity":76,"channel":0,"time":9,"duration":0.49},{"pitch":71,"velocity":76,"channel":0,"time":10,"duration":0.49},{"pitch":60,"velocity":76,"channel":0,"time":11,"duration":0.49},{"pitch":55,"velocity":76,"channel":0,"time":12,"duration":0.49},{"pitch":60,"velocity":76,"channel":0,"time":13,"duration":0.49},{"pitch":69,"velocity":76,"channel":0,"time":14,"duration":0.49},{"pitch":62,"velocity":76,"channel":0,"time":15,"duration":0.49},{"pitch":64,"velocity":76,"channel":0,"time":16,"duration":0.49},{"pitch":38,"velocity":76,"channel":0,"time":17,"duration":0.49},{"pitch":70,"velocity":76,"channel":0,"time":18,"duration":0.49},{"pitch":66,"velocity":76,"channel":0,"time":19,"duration":0.49},{"pitch":55,"velocity":76,"channel":0,"time":20,"duration":0.49},{"pitch":71,"velocity":76,"channel":0,"time":21,"duration":0.49},{"pitch":59,"velocity":76,"channel":0,"time":22,"duration":0.49},{"pitch":67,"velocity":76,"channel":0,"time":23,"duration":0.49},{"pitch":36,"velocity":76,"channel":0,"time":24,"duration":0.49},{"pitch":67,"velocity":76,"channel":0,"time":25,"duration":0.49},{"pitch":48,"velocity":76,"channel":0,"time":26,"duration":0.49},{"pitch":44,"velocity":76,"channel":0,"time":27,"duration":0.49},{"pitch":63,"velocity":76,"channel":0,"time":28,"duration":0.49},{"pitch":43,"velocity":76,"channel":0,"time":29,"duration":0.49},{"pitch":66,"velocity":76,"channel":0,"time":30,"duration":0.49},{"pitch":44,"velocity":76,"channel":0,"time":31,"duration":0.49},{"pitch":56,"velocity":76,"channel":0,"time":32,"duration":0.49},{"pitch":68,"velocity":76,"channel":0,"time":33,"duration":0.49},{"pitch":36,"velocity":76,"channel":0,"time":34,"duration":0.49},{"pitch":58,"velocity":76,"channel":0,"time":35,"duration":0.49},{"pitch":60,"velocity":76,"channel":0,"time":36,"duration":0.49},{"pitch":66,"velocity":76,"channel":0,"time":37,"duration":0.49},{"pitch":41,"velocity":76,"channel":0,"time":38,"duration":0.49},{"pitch":37,"velocity":76,"channel":0,"time":39,"duration":0.49},{"pitch":50,"velocity":76,"channel":0,"time":40,"duration":0.49},{"pitch":46,"velocity":76,"channel":0,"time":41,"duration":0.49},{"pitch":55,"velocity":76,"channel":0,"time":42,"duration":0.49},{"pitch":62,"velocity":76,"channel":0,"time":43,"duration":0.49},{"pitch":50,"velocity":76,"channel":0,"time":44,"duration":0.49},{"pitch":46,"velocity":76,"channel":0,"time":45,"duration":0.49},{"pitch":53,"velocity":76,"channel":0,"time":46,"duration":0.49},{"pitch":41,"velocity":76,"channel":0,"time":47,"duration":0.49},{"pitch":49,"velocity":76,"channel":0,"time":48,"duration":0.49},{"pitch":48,"velocity":76,"channel":0,"time":49,"duration":0.49},{"pitch":39,"velocity":76,"channel":0,"time":50,"duration":0.49},{"pitch":69,"velocity":76,"channel":0,"time":51,"duration":0.49},{"pitch":65,"velocity":76,"channel":0,"time":52,"duration":0.49},{"pitch":44,"velocity":76,"channel":0,"time":53,"duration":0.49},{"pitch":64,"velocity":76,"channel":0,"time":54,"duration":0.49},{"pitch":49,"velocity":76,"channel":0,"time":55,"duration":0.49},{"pitch":66,"velocity":76,"channel":0,"time":56,"duration":0.49},{"pitch":67,"velocity":76,"channel":0,"time":57,"duration":0.49},{"pitch":58,"velocity":76,"channel":0,"time":58,"duration":0.49},{"pitch":48,"velocity":76,"channel":0,"time":59,"duration":0.49},{"pitch":50,"velocity":76,"channel":0,"time":60,"duration":0.49},{"pitch":71,"velocity":76,"channel":0,"time":61,"duration":0.49},{"pitch":62,"velocity":76,"channel":0,"time":62,"duration":0.49},{"pitch":71,"velocity":76,"channel":0,"time":63,"duration":0.49},{"pitch":38,"velocity":76,"channel":0,"time":64,"duration":0.49},{"pitch":50,"velocity":76,"channel":0,"time":65,"duration":0.49},{"pitch":61,"velocity":76,"channel":0,"time":66,"duration":0.49},{"pitch":47,"velocity":76,"channel":0,"time":67,"duration":0.49},{"pitch":62,"velocity":76,"channel":0,"time":68,"duration":0.49},{"pitch":56,"velocity":76,"channel":0,"time":69,"duration":0.49},{"pitch":40,"velocity":76,"channel":0,"time":70,"duration":0.49},{"pitch":48,"velocity":76,"channel":0,"time":71,"duration":0.49},{"pitch":63,"velocity":76,"channel":0,"time":72,"duration":0.49},{"pitch":63,"velocity":76,"channel":0,"time":73,"duration":0.49},{"pitch":46,"velocity":76,"channel":0,"time":74,"duration":0.49},{"pitch":71,"velocity":76,"channel":0,"time":75,"duration":0.49},{"pitch":71,"velocity":76,"channel":0,"time":76,"duration":0.49},{"pitch":50,"velocity":76,"channel":0,"time":77,"duration":0.49},{"pitch":53,"velocity":76,"channel":0,"time":78,"duration":0.49},{"pitch":61,"velocity":76,"channel":0,"time":79,"duration":0.49},{"pitch":46,"velocity":76,"channel":0,"time":80,"duration":0.49},{"pitch":37,"velocity":76,"channel":0,"time":81,"duration":0.49},{"pitch":37,"velocity":76,"channel":0,"time":82,"duration":0.49},{"pitch":64,"velocity":76,"channel":0,"time":83,"duration":0.49},{"pitch":60,"velocity":76,"channel":0,"time":84,"duration":0.49},{"pitch":46,"velocity":76,"channel":0,"time":85,"duration":0.49},{"pitch":41,"velocity":76,"channel":0,"time":86,"duration":0.49},{"pitch":64,"velocity":76,"channel":0,"time":87,"duration":0.49},{"pitch":47,"velocity":76,"channel":0,"time":88,"duration":0.49},{"pitch":65,"velocity":76,"channel":0,"time":89,"duration":0.49},{"pitch":69,"velocity":76,"channel":0,"time":90,"duration":0.49},{"pitch":60,"velocity":76,"channel":0,"time":91,"duration":0.49},{"pitch":36,"velocity":76,"channel":0,"time":92,"duration":0.49},{"pitch":54,"velocity":76,"channel":0,"time":93,"duration":0.49},{"pitch":44,"velocity":76,"channel":0,"time":94,"duration":0.49},{"pitch":39,"velocity":76,"channel":0,"time":95,"duration":0.49},{"pitch":67,"velocity":76,"channel":0,"time":96,"duration":0.49},{"pitch":53,"velocity":76,"channel":0,"time":97,"duration":0.49},{"pitch":52,"velocity":76,"channel":0,"time":98,"duration":0.49},{"pitch":55,"velocity":76,"channel":0,"time":99,"duration":0.49}]}