{"bpm": 250, "notes": [{"pitch": 53, "velocity": 76, "channel": 0, "time": 0, "duration": 0.49}, {"pitch": 36, "velocity": 76, "channel": 0, "time": 0.5, "duration": 0.49}, {"pitch": 66, "velocity": 76, "channel": 0, "time": 1, "duration": 0.49}, {"pitch": 62, "velocity": 76, "channel": 0, "time": 1.5, "duration": 0.49}, {"pitch": 43, "velocity": 76, "channel": 0, "time": 2, "duration": 0.49}, {"pitch": 56, "velocity": 76, "channel": 0, "time": 2.5, "duration": 0.49}, {"pitch": 62, "velocity": 76, "channel": 0, "time": 3, "duration": 0.49}, {"pitch": 41, "velocity": 76, "channel": 0, "time": 3.5, "duration": 0.49}, {"pitch": 40, "velocity": 76, "channel": 0, "time": 4, "duration": 0.49}, {"pitch": 59, "velocity": 76, "channel": 0, "time": 4.5, "duration": 0.49}, {"pitch": 60, "velocity": 76, "channel": 0, "time": 5, "duration": 0.49}, {"pitch": 54, "velocity": 76, "channel": 0, "time": 5.5, "duration": 0.49}, {"pitch": 52, "velocity": 76, "channel": 0, "time": 6, "duration": 0.49}, {"pitch": 45, "velocity": 76, "channel": 0, "time": 6.5, "duration": 0.49}, {"pitch": 47, "velocity": 76, "channel": 0, "time": 7, "duration": 0.49}, {"pitch": 41, "velocity": 76, "channel": 0, "time": 7.5, "duration": 0.49}, {"pitch": 55, "velocity": 76, "channel": 0, "time": 8, "duration": 0.49}, {"pitch": 60, "velocity": 76, "channel": 0, "time": 8.5, "duration": 0.49}, {"pitch": 51, "velocity": 76, "channel": 0, "time": 9, "duration": 0.49}, {"pitch": 36, "velocity": 76, "channel": 0, "time": 9.5, "duration": 0.49}, {"pitch": 54, "velocity": 76, "channel": 0, "time": 10, "duration": 0.49}, {"pitch": 64, "velocity": 76, "channel": 0, "time": 10.5, "duration": 0.49}, {"pitch": 54, "velocity": 76, "channel": 0, "time": 11, "duration": 0.49}, {"pitch": 54, "velocity": 76, "channel": 0, "time": 11.5, "duration": 0.49}, {"pitch": 44, "velocity": 76, "channel": 0, "time": 12, "duration": 0.49}, {"pitch": 53, "velocity": 76, "channel": 0, "time": 12.5, "duration": 0.49}, {"pitch": 38, "velocity": 76, "channel": 0, "time": 13, "duration": 0.49}, {"pitch": 37, "velocity": 76, "channel": 0, "time": 13.5, "duration": 0.49}, {"pitch": 57, "velocity": 76, "channel": 0, "time": 14, "duration": 0.49}, {"pitch": 43, "velocity": 76, "channel": 0, "time": 14.5, "duration": 0.49}, {"pitch": 70, "velocity": 76, "channel": 0, "time": 15, "duration": 0.49}, {"pitch": 36, "velocity": 76, "channel": 0, "time": 15.5, "duration": 0.49}, {"pitch": 43, "velocity": 76, "channel": 0, "time": 16, "duration": 0.49}, {"pitch": 45, "velocity": 76, "channel": 0, "time": 16.5, "duration": 0.49}, {"pitch": 67, "velocity": 76, "channel": 0, "time": 17, "duration": 0.49}, {"pitch": 52, "velocity": 76, "channel": 0, "time": 17.5, "duration": 0.49}, {"pitch": 70, "velocity": 76, "channel": 0, "time": 18, "duration": 0.49}, {"pitch": 42, "velocity": 76, "channel": 0, "time": 18.5, "duration": 0.49}, {"pitch": 51, "velocity": 76, "channel": 0, "time": 19, "duration": 0.49}, {"pitch": 52, "velocity": 76, "channel": 0, "time": 19.5, "duration": 0.49}, {"pitch": 46, "velocity": 76, "channel": 0, "time": 20, "duration": 0.49}, {"pitch": 63, "velocity": 76, "channel": 0, "time": 20.5, "duration": 0.49}, {"pitch": 48, "velocity": 76, "channel": 0, "time": 21, "duration": 0.49}, {"pitch": 65, "velocity": 76, "channel": 0, "time": 21.5, "duration": 0.49}, {"pitch": 48, "velocity": 76, "channel": 0, "time": 22, "duration": 0.49}, {"pitch": 58, "velocity": 76, "channel": 0, "time": 22.5, "duration": 0.49}, {"pitch": 38, "velocity": 76, "channel": 0, "time": 23, "duration": 0.49}, {"pitch": 48, "velocity": 76, "channel": 0, "time": 23.5, "duration": 0.49}, {"pitch": 61, "velocity": 76, "channel": 0, "time": 24, "duration": 0.49}, {"pitch": 52, "velocity": 76, "channel": 0, "time": 24.5, "duration": 0.49}, {"pitch": 54, "velocity": 76, "channel": 0, "time": 25, "duration": 0.49}, {"pitch": 47, "velocity": 76, "channel": 0, "time": 25.5, "duration": 0.49}, {"pitch": 41, "velocity": 76, "channel": 0, "time": 26, "duration": 0.49}, {"pitch": 50, "velocity": 76, "channel": 0, "time": 26.5, "duration": 0.49}, {"pitch": 68, "velocity": 76, "channel": 0, "time": 27, "duration": 0.49}, {"pitch": 52, "velocity": 76, "channel": 0, "time": 27.5, "duration": 0.49}, {"pitch": 49, "velocity": 76, "channel": 0, "time": 28, "duration": 0.49}, {"pitch": 37, "velocity": 76, "channel": 0, "time": 28.5, "duration": 0.49}, {"pitch": 54, "velocity": 76, "channel": 0, "time": 29, "duration": 0.49}, {"pitch": 57, "velocity": 76, "channel": 0, "time": 29.5, "duration": 0.49}, {"pitch": 43, "velocity": 76, "channel": 0, "time": 30, "duration": 0.49}, {"pitch": 42, "velocity": 76, "channel": 0, "time": 30.5, "duration": 0.49}, {"pitch": 71, "velocity": 76, "channel": 0, "time": 31, "duration": 0.49}, {"pitch": 69, "velocity": 76, "channel": 0, "time": 31.5, "duration": 0.49}, {"pitch": 47, "velocity": 76, "channel": 0, "time": 32, "duration": 0.49}, {"pitch": 71, "velocity": 76, "channel": 0, "time": 32.5, "duration": 0.49}, {"pitch": 62, "velocity": 76, "channel": 0, "time": 33, "duration": 0.49}, {"pitch": 42, "velocity": 76, "channel": 0, "time": 33.5, "duration": 0.49}, {"pitch": 48, "velocity": 76, "channel": 0, "time": 34, "duration": 0.49}, {"pitch": 61, "velocity": 76, "channel": 0, "time": 34.5, "duration": 0.49}, {"pitch": 53, "velocity": 76, "channel": 0, "time": 35, "duration": 0.49}, {"pitch": 59, "velocity": 76, "channel": 0, "time": 35.5, "duration": 0.49}, {"pitch": 61, "velocity": 76, "channel": 0, "time": 36, "duration": 0.49}, {"pitch": 50, "velocity": 76, "channel": 0, "time": 36.5, "duration": 0.49}, {"pitch": 66, "velocity": 76, "channel": 0, "time": 37, "duration": 0.49}, {"pitch": 65, "velocity": 76, "channel": 0, "time": 37.5, "duration": 0.49}, {"pitch": 48, "velocity": 76, "channel": 0, "time": 38, "duration": 0.49}, {"pitch": 57, "velocity": 76, "channel": 0, "time": 38.5, "duration": 0.49}, {"pitch": 44, "velocity": 76, "channel": 0, "time": 39, "duration": 0.49}, {"pitch": 56, "velocity": 76, "channel": 0, "time": 39.5, "duration": 0.49}, {"pitch": 37, "velocity": 76, "channel": 0, "time": 40, "duration": 0.49}, {"pitch": 58, "velocity": 76, "channel": 0, "time": 40.5, "duration": 0.49}, {"pitch": 52, "velocity": 76, "channel": 0, "time": 41, "duration": 0.49}, {"pitch": 63, "velocity": 76, "channel": 0, "time": 41.5, "duration": 0.49}, {"pitch": 58, "velocity": 76, "channel": 0, "time": 42, "duration": 0.49}, {"pitch": 47, "velocity": 76, "channel": 0, "time": 42.5, "duration": 0.49}, {"pitch": 71, "velocity": 76, "channel": 0, "time": 43, "duration": 0.49}, {"pitch": 49, "velocity": 76, "channel": 0, "time": 43.5, "duration": 0.49}, {"pitch": 62, "velocity": 76, "channel": 0, "time": 44, "duration": 0.49}, {"pitch": 38, "velocity": 76, "channel": 0, "time": 44.5, "duration": 0.49}, {"pitch": 61, "velocity": 76, "channel": 0, "time": 45, "duration": 0.49}, {"pitch": 58, "velocity": 76, "channel": 0, "time": 45.5, "duration": 0.49}, {"pitch": 53, "velocity": 76, "channel": 0, "time": 46, "duration": 0.49}, {"pitch": 68, "velocity": 76, "channel": 0, "time": 46.5, "duration": 0.49}, {"pitch": 38, "velocity": 76, "channel": 0, "time": 47, "duration": 0.49}, {"pitch": 65, "velocity": 76, "channel": 0, "time": 47.5, "duration": 0.49}, {"pitch": 46, "velocity": 76, "channel": 0, "time": 48, "duration": 0.49}, {"pitch": 42, "velocity": 76, "channel": 0, "time": 48.5, "duration": 0.49}, {"pitch": 68, "velocity": 76, "channel": 0, "time": 49, "duration": 0.49}, {"pitch": 45, "velocity": 76, "channel": 0, "time": 49.5, "duration": 0.49}]}